<?xml version="1.0" standalone="no"?>
<!DOCTYPE svg PUBLIC "-//W3C//DTD SVG 1.1//EN" "http://www.w3.org/Graphics/SVG/1.1/DTD/svg11.dtd">
<svg version="1.1" xmlns="http://www.w3.org/2000/svg" viewBox="0 0 332.6660398781187 88.92198781698926" width="332.6660398781187" height="88.92198781698926"><!-- svg-source:excalidraw --><metadata></metadata><defs><style class="style-fonts">
      </style></defs><rect x="0" y="0" width="332.6660398781187" height="88.92198781698926" fill="#ffffff"></rect><g stroke-linecap="round" transform="translate(166.21489681207822 10.041251169161796) rotate(0 67.72194278095049 17.248215989786218)"><path d="M0 0 C33.11 0, 66.23 0, 135.44 0 M0 0 C46.79 0, 93.58 0, 135.44 0 M135.44 0 C135.44 8.22, 135.44 16.43, 135.44 34.5 M135.44 0 C135.44 9.72, 135.44 19.45, 135.44 34.5 M135.44 34.5 C100.27 34.5, 65.1 34.5, 0 34.5 M135.44 34.5 C98.52 34.5, 61.59 34.5, 0 34.5 M0 34.5 C0 25.03, 0 15.56, 0 0 M0 34.5 C0 27.27, 0 20.05, 0 0" stroke="#1971c2" stroke-width="1" fill="none"></path></g><g transform="translate(301.3849610837042 10.11962668340152) rotate(0 0.538320075307638 17.10661572643494)" stroke="none"><path fill="#ffffff" d="M 2.35,-0.73 Q 2.35,-0.73 2.57,-0.20 2.79,0.33 3.06,1.50 3.33,2.67 3.49,3.77 3.65,4.88 3.94,6.21 4.23,7.54 4.32,8.62 4.41,9.70 4.39,11.08 4.37,12.46 4.27,13.67 4.17,14.89 4.09,16.05 4.01,17.22 3.88,18.31 3.76,19.41 3.64,20.49 3.52,21.57 3.55,22.68 3.57,23.80 3.59,24.89 3.62,25.98 3.63,27.12 3.65,28.25 3.85,29.37 4.04,30.48 4.29,32.32 4.54,34.17 4.44,34.78 4.34,35.39 4.05,35.94 3.76,36.48 3.31,36.91 2.86,37.34 2.30,37.60 1.74,37.86 1.12,37.92 0.51,37.99 -0.09,37.86 -0.69,37.72 -1.22,37.41 -1.75,37.09 -2.15,36.62 -2.55,36.14 -2.78,35.57 -3.01,34.99 -3.05,34.38 -3.08,33.76 -2.91,33.16 -2.75,32.57 -2.40,32.05 -2.06,31.54 -1.56,31.17 -1.07,30.79 -0.48,30.59 0.09,30.40 0.71,30.40 1.33,30.40 1.92,30.59 2.50,30.79 3.00,31.16 3.49,31.54 3.84,32.05 4.18,32.56 4.35,33.16 4.52,33.76 4.48,34.37 4.45,34.99 4.22,35.57 3.99,36.14 3.59,36.61 3.19,37.09 2.66,37.40 2.13,37.72 1.53,37.86 0.92,37.99 0.31,37.92 -0.30,37.86 -0.86,37.60 -1.42,37.34 -1.87,36.91 -2.32,36.49 -2.61,35.94 -2.90,35.39 -3.00,34.78 -3.10,34.17 -3.10,34.17 -3.10,34.17 -3.17,32.86 -3.24,31.54 -3.57,29.80 -3.89,28.06 -3.87,26.96 -3.85,25.86 -3.83,24.75 -3.81,23.65 -3.78,22.51 -3.75,21.38 -3.58,20.17 -3.42,18.95 -3.23,17.88 -3.03,16.80 -2.86,15.59 -2.69,14.39 -2.52,13.27 -2.35,12.16 -2.19,10.96 -2.03,9.76 -2.03,8.46 -2.03,7.15 -2.06,5.68 -2.09,4.21 -2.10,3.03 -2.10,1.86 -2.23,1.30 -2.35,0.73 -2.41,0.44 -2.46,0.15 -2.44,-0.14 -2.43,-0.44 -2.34,-0.72 -2.25,-1.01 -2.09,-1.26 -1.94,-1.52 -1.73,-1.73 -1.52,-1.94 -1.27,-2.09 -1.01,-2.25 -0.73,-2.34 -0.44,-2.42 -0.14,-2.44 0.14,-2.46 0.44,-2.41 0.73,-2.35 1.00,-2.23 1.27,-2.11 1.51,-1.93 1.74,-1.74 1.92,-1.51 2.11,-1.27 2.23,-1.00 2.35,-0.73 2.35,-0.73 L 2.35,-0.73 Z"></path></g><g stroke-linecap="round"><g transform="translate(298.63354736546717 10) rotate(0 11.956432914625111 8.795102143705662)"><path d="M0 0 C6.97 5.13, 13.94 10.25, 23.91 17.59 M0 0 C9.45 6.95, 18.9 13.91, 23.91 17.59" stroke="#1971c2" stroke-width="1" fill="none"></path></g></g><mask></mask><g stroke-linecap="round"><g transform="translate(298.155040631862 44.58458235415196) rotate(0 12.255499623128344 -8.365091498891616)"><path d="M0 0 C5.62 -3.83, 11.23 -7.67, 24.51 -16.73 M0 0 C5.37 -3.67, 10.74 -7.33, 24.51 -16.73" stroke="#1971c2" stroke-width="1" fill="none"></path></g></g><mask></mask><g stroke-linecap="round" transform="translate(30.965276492257544 44.44768820342574) rotate(0 67.58660690077159 17.21374706588017)"><path d="M0 0 C52.22 0, 104.44 0, 135.17 0 M0 0 C43.74 0, 87.47 0, 135.17 0 M135.17 0 C135.17 12.94, 135.17 25.87, 135.17 34.43 M135.17 0 C135.17 6.95, 135.17 13.9, 135.17 34.43 M135.17 34.43 C93.34 34.43, 51.5 34.43, 0 34.43 M135.17 34.43 C99.27 34.43, 63.36 34.43, 0 34.43 M0 34.43 C0 24.26, 0 14.09, 0 0 M0 34.43 C0 21.03, 0 7.62, 0 0" stroke="#1971c2" stroke-width="1" fill="none"></path></g><g transform="translate(31.238550576654234 44.52590709163292) rotate(0 -0.5372442936886728 17.072429777226375)" stroke="none"><path fill="#ffffff" d="M 2.35,0.73 Q 2.35,0.73 2.23,1.30 2.10,1.86 2.10,3.03 2.09,4.20 2.06,5.67 2.03,7.14 2.03,8.44 2.03,9.74 2.19,10.94 2.35,12.13 2.52,13.24 2.70,14.36 2.86,15.56 3.03,16.77 3.23,17.84 3.42,18.91 3.58,20.13 3.75,21.34 3.78,22.47 3.81,23.60 3.83,24.70 3.85,25.81 3.87,26.91 3.89,28.00 3.57,29.74 3.24,31.49 3.17,32.79 3.10,34.10 3.00,34.72 2.90,35.33 2.61,35.87 2.32,36.42 1.87,36.84 1.42,37.27 0.86,37.53 0.30,37.79 -0.31,37.85 -0.92,37.92 -1.53,37.79 -2.13,37.65 -2.66,37.34 -3.19,37.02 -3.59,36.54 -3.99,36.07 -4.22,35.50 -4.45,34.92 -4.48,34.30 -4.51,33.69 -4.35,33.09 -4.18,32.49 -3.83,31.98 -3.49,31.47 -2.99,31.10 -2.50,30.72 -1.91,30.52 -1.33,30.33 -0.71,30.33 -0.09,30.33 0.49,30.53 1.07,30.72 1.57,31.10 2.06,31.47 2.40,31.99 2.75,32.50 2.92,33.10 3.08,33.69 3.05,34.31 3.01,34.93 2.78,35.50 2.55,36.08 2.15,36.55 1.75,37.02 1.22,37.34 0.69,37.66 0.09,37.79 -0.51,37.92 -1.12,37.85 -1.74,37.79 -2.30,37.53 -2.86,37.27 -3.31,36.84 -3.76,36.41 -4.05,35.87 -4.34,35.32 -4.44,34.71 -4.54,34.10 -4.54,34.10 -4.54,34.10 -4.29,32.26 -4.04,30.42 -3.85,29.31 -3.65,28.19 -3.63,27.06 -3.62,25.93 -3.59,24.84 -3.57,23.76 -3.55,22.64 -3.52,21.52 -3.64,20.45 -3.76,19.37 -3.88,18.28 -4.01,17.18 -4.08,16.02 -4.16,14.86 -4.26,13.65 -4.36,12.43 -4.39,11.06 -4.41,9.68 -4.32,8.60 -4.22,7.52 -3.94,6.19 -3.65,4.87 -3.49,3.76 -3.33,2.66 -3.06,1.50 -2.79,0.33 -2.57,-0.20 -2.35,-0.73 -2.23,-1.00 -2.11,-1.27 -1.92,-1.51 -1.74,-1.74 -1.51,-1.93 -1.27,-2.11 -1.00,-2.23 -0.73,-2.35 -0.43,-2.41 -0.14,-2.46 0.15,-2.44 0.44,-2.42 0.73,-2.34 1.01,-2.25 1.27,-2.09 1.52,-1.94 1.73,-1.73 1.94,-1.52 2.09,-1.26 2.25,-1.01 2.34,-0.72 2.43,-0.44 2.44,-0.14 2.46,0.15 2.41,0.44 2.35,0.73 2.35,0.73 L 2.35,0.73 Z"></path></g><g stroke-linecap="round"><g transform="translate(33.98446585550664 44.40651947081324) rotate(0 -11.932539117344277 8.777525966162557)"><path d="M0 0 C-4.99 3.67, -9.98 7.34, -23.87 17.56 M0 0 C-6.83 5.02, -13.66 10.05, -23.87 17.56" stroke="#1971c2" stroke-width="1" fill="none"></path></g></g><mask></mask><g stroke-linecap="round"><g transform="translate(34.46201633878445 78.92198781698926) rotate(0 -12.231008169392226 -8.34837465684177)"><path d="M0 0 C-7.85 -5.36, -15.71 -10.72, -24.46 -16.7 M0 0 C-5.45 -3.72, -10.9 -7.44, -24.46 -16.7" stroke="#1971c2" stroke-width="1" fill="none"></path></g></g><mask></mask></svg>