<?xml version="1.0" standalone="no"?>
<!DOCTYPE svg PUBLIC "-//W3C//DTD SVG 1.1//EN" "http://www.w3.org/Graphics/SVG/1.1/DTD/svg11.dtd">
<svg version="1.1" xmlns="http://www.w3.org/2000/svg" viewBox="0 0 307.33605272187015 90.24468891449328" width="307.33605272187015" height="90.24468891449328"><!-- svg-source:excalidraw --><metadata></metadata><defs><style class="style-fonts">
      </style></defs><rect x="0" y="0" width="307.33605272187015" height="90.24468891449328" fill="#ffffff"></rect><g stroke-linecap="round" transform="translate(10 10.041251169161796) rotate(0 67.72194278095049 17.248215989786218)"><path d="M0 0 C33.11 0, 66.23 0, 135.44 0 M0 0 C46.79 0, 93.58 0, 135.44 0 M135.44 0 C135.44 8.22, 135.44 16.43, 135.44 34.5 M135.44 0 C135.44 9.72, 135.44 19.45, 135.44 34.5 M135.44 34.5 C100.27 34.5, 65.1 34.5, 0 34.5 M135.44 34.5 C98.52 34.5, 61.59 34.5, 0 34.5 M0 34.5 C0 25.03, 0 15.56, 0 0 M0 34.5 C0 27.27, 0 20.05, 0 0" stroke="#1971c2" stroke-width="1" fill="none"></path></g><g transform="translate(145.17006427162596 10.11962668340152) rotate(0 0.538320075307638 17.10661572643494)" stroke="none"><path fill="#ffffff" d="M 2.35,-0.73 Q 2.35,-0.73 2.57,-0.20 2.79,0.33 3.06,1.50 3.33,2.67 3.49,3.77 3.65,4.88 3.94,6.21 4.23,7.54 4.32,8.62 4.41,9.70 4.39,11.08 4.37,12.46 4.27,13.67 4.17,14.89 4.09,16.05 4.01,17.22 3.88,18.31 3.76,19.41 3.64,20.49 3.52,21.57 3.55,22.68 3.57,23.80 3.59,24.89 3.62,25.98 3.63,27.12 3.65,28.25 3.85,29.37 4.04,30.48 4.29,32.34 4.54,34.21 4.44,34.82 4.34,35.43 4.05,35.97 3.76,36.52 3.31,36.95 2.86,37.37 2.30,37.63 1.74,37.89 1.12,37.96 0.51,38.03 -0.09,37.90 -0.69,37.76 -1.22,37.44 -1.75,37.13 -2.15,36.65 -2.55,36.18 -2.78,35.61 -3.01,35.03 -3.05,34.41 -3.08,33.80 -2.92,33.20 -2.75,32.60 -2.40,32.09 -2.06,31.58 -1.56,31.20 -1.07,30.83 -0.48,30.63 0.09,30.43 0.71,30.43 1.33,30.43 1.92,30.63 2.50,30.83 3.00,31.20 3.49,31.58 3.84,32.09 4.18,32.60 4.35,33.20 4.52,33.79 4.48,34.41 4.45,35.03 4.22,35.60 3.99,36.18 3.59,36.65 3.19,37.12 2.66,37.44 2.13,37.76 1.53,37.89 0.92,38.03 0.31,37.96 -0.30,37.89 -0.86,37.64 -1.42,37.38 -1.87,36.95 -2.32,36.52 -2.61,35.98 -2.90,35.43 -3.00,34.82 -3.10,34.21 -3.10,34.21 -3.10,34.21 -3.17,32.88 -3.24,31.54 -3.57,29.80 -3.89,28.06 -3.87,26.96 -3.85,25.86 -3.83,24.75 -3.81,23.65 -3.78,22.51 -3.75,21.38 -3.58,20.17 -3.42,18.95 -3.23,17.88 -3.03,16.80 -2.86,15.59 -2.69,14.39 -2.52,13.27 -2.35,12.16 -2.19,10.96 -2.03,9.76 -2.03,8.46 -2.03,7.15 -2.06,5.68 -2.09,4.21 -2.10,3.03 -2.10,1.86 -2.23,1.30 -2.35,0.73 -2.41,0.44 -2.46,0.15 -2.44,-0.14 -2.43,-0.44 -2.34,-0.72 -2.25,-1.01 -2.09,-1.26 -1.94,-1.52 -1.73,-1.73 -1.52,-1.94 -1.27,-2.09 -1.01,-2.25 -0.73,-2.34 -0.44,-2.42 -0.14,-2.44 0.14,-2.46 0.44,-2.41 0.73,-2.35 1.00,-2.23 1.27,-2.11 1.51,-1.93 1.74,-1.74 1.92,-1.51 2.11,-1.27 2.23,-1.00 2.35,-0.73 2.35,-0.73 L 2.35,-0.73 Z"></path></g><g stroke-linecap="round"><g transform="translate(142.41865055338894 10) rotate(0 11.956432914625111 8.795102143705662)"><path d="M0 0 C6.97 5.13, 13.94 10.25, 23.91 17.59 M0 0 C9.45 6.95, 18.9 13.91, 23.91 17.59" stroke="#1971c2" stroke-width="1" fill="none"></path></g></g><mask></mask><g stroke-linecap="round"><g transform="translate(141.94014381978377 44.58458235415196) rotate(0 12.255499623128344 -8.365091498891616)"><path d="M0 0 C5.62 -3.83, 11.23 -7.67, 24.51 -16.73 M0 0 C5.37 -3.67, 10.74 -7.33, 24.51 -16.73" stroke="#1971c2" stroke-width="1" fill="none"></path></g></g><mask></mask><g stroke-linecap="round" transform="translate(140.8849096558315 45.701357729503115) rotate(0 67.72194278095049 17.248215989786218)"><path d="M0 0 C52.32 0, 104.65 0, 135.44 0 M0 0 C43.82 0, 87.65 0, 135.44 0 M135.44 0 C135.44 12.96, 135.44 25.92, 135.44 34.5 M135.44 0 C135.44 6.96, 135.44 13.93, 135.44 34.5 M135.44 34.5 C93.52 34.5, 51.6 34.5, 0 34.5 M135.44 34.5 C99.47 34.5, 63.49 34.5, 0 34.5 M0 34.5 C0 24.31, 0 14.12, 0 0 M0 34.5 C0 21.07, 0 7.64, 0 0" stroke="#1971c2" stroke-width="1" fill="none"></path></g><g transform="translate(276.05497392745565 45.77973324374284) rotate(0 0.538320075307638 17.10661572643494)" stroke="none"><path fill="#ffffff" d="M 2.35,-0.73 Q 2.35,-0.73 2.57,-0.20 2.79,0.33 3.06,1.50 3.33,2.67 3.49,3.77 3.65,4.88 3.94,6.21 4.23,7.54 4.32,8.62 4.41,9.70 4.39,11.08 4.37,12.46 4.27,13.67 4.17,14.89 4.09,16.05 4.01,17.22 3.88,18.31 3.76,19.41 3.64,20.49 3.52,21.57 3.55,22.68 3.57,23.80 3.59,24.89 3.62,25.98 3.63,27.12 3.65,28.25 3.85,29.37 4.04,30.48 4.29,32.32 4.54,34.17 4.44,34.78 4.34,35.39 4.05,35.94 3.76,36.48 3.31,36.91 2.86,37.34 2.30,37.60 1.74,37.86 1.12,37.92 0.51,37.99 -0.09,37.86 -0.69,37.72 -1.22,37.41 -1.75,37.09 -2.15,36.62 -2.55,36.14 -2.78,35.57 -3.01,34.99 -3.05,34.38 -3.08,33.76 -2.91,33.16 -2.75,32.57 -2.40,32.05 -2.06,31.54 -1.56,31.17 -1.07,30.79 -0.48,30.59 0.09,30.40 0.71,30.40 1.33,30.40 1.92,30.59 2.50,30.79 3.00,31.16 3.49,31.54 3.84,32.05 4.18,32.56 4.35,33.16 4.52,33.76 4.48,34.37 4.45,34.99 4.22,35.57 3.99,36.14 3.59,36.61 3.19,37.09 2.66,37.40 2.13,37.72 1.53,37.86 0.92,37.99 0.31,37.92 -0.30,37.86 -0.86,37.60 -1.42,37.34 -1.87,36.91 -2.32,36.49 -2.61,35.94 -2.90,35.39 -3.00,34.78 -3.10,34.17 -3.10,34.17 -3.10,34.17 -3.17,32.86 -3.24,31.54 -3.57,29.80 -3.89,28.06 -3.87,26.96 -3.85,25.86 -3.83,24.75 -3.81,23.65 -3.78,22.51 -3.75,21.38 -3.58,20.17 -3.42,18.95 -3.23,17.88 -3.03,16.80 -2.86,15.59 -2.69,14.39 -2.52,13.27 -2.35,12.16 -2.19,10.96 -2.03,9.76 -2.03,8.46 -2.03,7.15 -2.06,5.68 -2.09,4.21 -2.10,3.03 -2.10,1.86 -2.23,1.30 -2.35,0.73 -2.41,0.44 -2.46,0.15 -2.44,-0.14 -2.43,-0.44 -2.34,-0.72 -2.25,-1.01 -2.09,-1.26 -1.94,-1.52 -1.73,-1.73 -1.52,-1.94 -1.27,-2.09 -1.01,-2.25 -0.73,-2.34 -0.44,-2.42 -0.14,-2.44 0.14,-2.46 0.44,-2.41 0.73,-2.35 1.00,-2.23 1.27,-2.11 1.51,-1.93 1.74,-1.74 1.92,-1.51 2.11,-1.27 2.23,-1.00 2.35,-0.73 2.35,-0.73 L 2.35,-0.73 Z"></path></g><g stroke-linecap="round"><g transform="translate(273.30356020921863 45.66010656034109) rotate(0 11.956432914625111 8.795102143705662)"><path d="M0 0 C5 3.68, 10 7.36, 23.91 17.59 M0 0 C6.84 5.03, 13.69 10.07, 23.91 17.59" stroke="#1971c2" stroke-width="1" fill="none"></path></g></g><mask></mask><g stroke-linecap="round"><g transform="translate(272.82505347561346 80.24468891449328) rotate(0 12.255499623128344 -8.365091498891616)"><path d="M0 0 C7.87 -5.37, 15.74 -10.74, 24.51 -16.73 M0 0 C5.46 -3.73, 10.92 -7.45, 24.51 -16.73" stroke="#1971c2" stroke-width="1" fill="none"></path></g></g><mask></mask></svg>